# xmcd
# 
# Track frame offsets:
#     150
#     26972
#     52620
#     73877
#     101102
#     120740
#     144637
#     171570
#     193167
#     218792
#     237765
#     259252
# 
# Disc length: 3733
# 
# Revision: 8
# Processed by: cddbd v1.5.2PL0 Copyright (c) Steve Scherf et al.
# Submitted via: fre:ac v1.0.31
# 
DISCID=bb0e930c
DTITLE=Miguel Bosé - Bajo El Signo De Caín
DYEAR=1993
DGENRE=Latin
TTITLE0=Te Comeria El Corazón
TTITLE1=Lo Que Hay Es Lo Que Ves
TTITLE2=Si Tú No Vuelves
TTITLE3=Nada Particular
TTITLE4=Mayo
TTITLE5=Bajo El Signo De Caín
TTITLE6=Wako-Shaman
TTITLE7=Imagínate Que Te Quiero
TTITLE8=Sara
TTITLE9=Sol Forastero
TTITLE10=La Americana
TTITLE11=Gota A Gota
EXTD=
EXTT0=
EXTT1=
EXTT2=
EXTT3=
EXTT4=
EXTT5=
EXTT6=
EXTT7=
EXTT8=
EXTT9=
EXTT10=
EXTT11=
PLAYORDER=
